Coordinates
version=1
nRows=11
nColumns=40
inDegrees=yes

Units are S.I. units (second, meters, Newtons, ...)
Angles are in degrees.

endheader
time	pelvis_tilt	pelvis_list	pelvis_rotation	pelvis_tx	pelvis_ty	pelvis_tz	hip_flexion_r	hip_adduction_r	hip_rotation_r	knee_angle_r	knee_angle_r_beta	ankle_angle_r	subtalar_angle_r	mtp_angle_r	hip_flexion_l	hip_adduction_l	hip_rotation_l	knee_angle_l	knee_angle_l_beta	ankle_angle_l	subtalar_angle_l	mtp_angle_l	lumbar_extension	lumbar_bending	lumbar_rotation	arm_flex_r	arm_add_r	arm_rot_r	elbow_flex_r	pro_sup_r	wrist_flex_r	wrist_dev_r	arm_flex_l	arm_add_l	arm_rot_l	elbow_flex_l	pro_sup_l	wrist_flex_l	wrist_dev_l
      3.98250000	     -3.56615670	     -4.06537178	     -1.12298256	      1.01669077	      0.91421053	      0.46067311	      1.86470239	     -3.90461582	    -12.02850511	     38.59508149	     38.59508149	     11.65192887	     -9.44485624	    -12.41903331	     29.15805885	     -5.52046631	     -6.79126261	     27.51520772	     27.51520772	      5.31898465	    -15.56299612	      3.18689165	     -7.74398719	      3.24421261	      2.93710202	     32.66804359	    -14.63560709	     -1.18318174	    102.76142506	     43.84578138	      0.00000000	      0.00000000	    -11.92470030	     -6.30516329	      7.13059997	     22.85011280	     44.82692821	      0.00000000	      0.00000000
      3.99400000	     -3.58617501	     -3.90655191	     -1.34579513	      1.01671759	      0.91594485	      0.45890223	      3.95712336	     -4.48117877	    -11.55381249	     42.83534620	     42.83534620	      9.90572759	    -12.36591849	    -11.61747439	     28.30869989	     -5.44297338	     -7.49725845	     27.30408389	     27.30408389	      6.08206701	    -14.73579984	      2.39771915	     -7.68818090	      2.97633412	      2.73767543	     30.44499894	    -14.87605813	     -0.56624938	    103.04564090	     43.83603383	      0.00000000	      0.00000000	    -10.67603411	     -6.55746668	      7.01149012	     23.09583546	     44.89271210	      0.00000000	      0.00000000
      4.00550000	     -3.52033367	     -3.54218342	     -1.55933928	      1.01657931	      0.91773931	      0.45705557	      6.06228283	     -5.45007403	    -11.46864932	     47.14828869	     47.14828869	      8.44726292	    -14.33429319	    -10.83846515	     27.23887858	     -5.10230735	     -8.28178901	     26.83747678	     26.83747678	      6.76496374	    -13.97961758	      1.82437736	     -7.73529272	      2.48334215	      2.27529514	     28.33967618	    -14.77130003	      0.00081486	    102.91490727	     43.82626261	      0.00000000	      0.00000000	     -9.51754102	     -6.90237159	      6.91980997	     23.43085737	     44.93911908	      0.00000000	      0.00000000
      4.01700000	     -3.44547300	     -3.37920317	     -1.74221171	      1.01624040	      0.91941913	      0.45549911	      8.39219934	     -6.05840094	    -11.23469610	     51.78755016	     51.78755016	      9.05269447	    -15.31106693	     -4.27466065	     26.18161411	     -5.05868423	     -9.27990016	     26.36503053	     26.36503053	      7.06789218	    -12.83116463	     -0.07365465	     -7.87896625	      2.21118851	      2.43623054	     25.51748185	    -15.34733154	      0.27152490	    103.88204069	     43.87503407	      0.00000000	      0.00000000	     -7.87470972	     -7.22188764	      6.46990500	     23.71684006	     45.10686387	      0.00000000	      0.00000000
      4.02850000	     -3.38638490	     -3.14081942	     -1.89848994	      1.01566047	      0.92099406	      0.45390092	     10.64544253	     -6.78399477	    -11.16422887	     55.92898140	     55.92898140	      8.53942714	    -16.70192391	     -1.76002467	     25.16581429	     -4.85749690	    -10.10862748	     25.90209435	     25.90209435	      7.63814966	    -11.81920161	     -0.83383883	     -7.93619005	      1.84803030	      2.13274243	     23.26849341	    -15.51243069	      0.79069677	    102.86916207	     43.92706861	      0.00000000	      0.00000000	     -6.50644700	     -7.66194753	      6.23608332	     24.32428801	     45.19144651	      0.00000000	      0.00000000
      4.04000000	     -3.29267208	     -2.80769054	     -1.97158384	      1.01491937	      0.92247867	      0.45214395	     12.80388585	     -7.71484152	    -11.29465229	     59.76470515	     59.76470515	      7.77733076	    -17.78372292	     -1.20127727	     24.11266225	     -4.42701469	    -10.64345470	     25.35997868	     25.35997868	      8.13905982	    -11.18385523	     -1.13552008	     -8.09430418	      1.41293494	      1.38547344	     21.07475712	    -15.16926650	      1.36637802	    102.23949738	     43.92759086	      0.00000000	      0.00000000	     -5.21314585	     -8.17482494	      6.13413445	     24.80138691	     45.23470967	      0.00000000	      0.00000000
      4.05150000	     -3.18384651	     -2.63869311	     -2.09659797	      1.01409111	      0.92388026	      0.45072579	     15.10121910	     -8.25120613	    -11.11893666	     63.63837888	     63.63837888	      8.84036643	    -18.10901658	      4.04444000	     23.01979687	     -4.32190746	    -11.61556669	     24.81017574	     24.81017574	      8.64098847	     -9.77901666	     -2.22804345	     -8.23744738	      1.15638817	      1.43215800	     18.50543507	    -15.71078258	      1.57570353	    100.98022946	     43.99803217	      0.00000000	      0.00000000	     -3.68214804	     -8.67668380	      5.74998615	     25.79651642	     45.33996124	      0.00000000	      0.00000000
      4.06300000	     -3.13609192	     -2.42352930	     -2.10575124	      1.01304431	      0.92511035	      0.44903286	     17.38685147	     -8.92311367	    -11.13086931	     67.09671276	     67.09671276	      9.44763558	    -18.30311234	      7.43038272	     22.05027383	     -3.96117022	    -11.97772322	     24.23024277	     24.23024277	      8.95811265	     -9.24675366	     -2.78825347	     -8.36748033	      0.90396420	      0.80556699	     16.26074911	    -15.45333490	      1.68688409	     99.69511963	     44.08190729	      0.00000000	      0.00000000	     -2.22931210	     -9.13831945	      5.45963510	     26.35812196	     45.42766004	      0.00000000	      0.00000000
      4.07450000	     -3.08053634	     -2.17528126	     -2.10937597	      1.01191740	      0.92617065	      0.44735485	     19.53900992	     -9.61741617	    -11.13980643	     70.03095696	     70.03095696	      9.26194298	    -18.58607851	      7.58652430	     21.11206369	     -3.56678971	    -12.33584064	     23.70730087	     23.70730087	      9.39048735	     -8.68441008	     -3.04118020	     -8.50911501	      0.65781474	      0.23784651	     13.90236485	    -15.48080131	      2.09011695	     98.36433166	     44.11200142	      0.00000000	      0.00000000	     -0.72640591	     -9.72535131	      5.31840147	     26.93737544	     45.47801124	      0.00000000	      0.00000000
      4.08600000	     -2.97757239	     -2.03533172	     -2.12894822	      1.01082162	      0.92730289	      0.44581687	     21.62307031	    -10.05603479	    -11.02616191	     72.60404842	     72.60404842	      9.55142509	    -18.63743915	      9.24445945	     20.10901661	     -3.30970074	    -12.74065375	     23.17502546	     23.17502546	      9.75319786	     -7.99168386	     -3.68762387	     -8.65756238	      0.47512167	     -0.05763591	     11.57599603	    -15.32284494	      1.67875525	     95.78227117	     44.24137861	      0.00000000	      0.00000000	      0.99478345	    -10.25061599	      5.10769802	     27.48373218	     45.54845797	      0.00000000	      0.00000000
      4.09750000	     -2.90498363	     -1.86792146	     -2.11796336	      1.00967153	      0.92825330	      0.44423123	     23.64215633	    -10.50955982	    -10.92316532	     74.68208102	     74.68208102	      9.35532078	    -18.65556828	      9.17760485	     19.18364094	     -2.96141721	    -12.90466087	     22.68679696	     22.68679696	     10.19398911	     -7.59416350	     -3.88575609	     -8.83512612	      0.32969515	     -0.48711682	      9.11986124	    -15.46303415	      2.00203861	     94.03603444	     44.28454915	      0.00000000	      0.00000000	      2.62027791	    -10.82019263	      4.97566772	     28.12454781	     45.59655260	      0.00000000	      0.00000000
